<mxfile host="Electron" modified="2024-03-27T00:48:22.311Z" agent="Mozilla/5.0 (X11; Linux x86_64) AppleWebKit/537.36 (KHTML, like Gecko) draw.io/24.1.0 Chrome/120.0.6099.109 Electron/28.1.0 Safari/537.36" etag="6ak0zDofZ4_xMRG3i1P2" version="24.1.0" type="device">
  <diagram name="第 1 页" id="ErFRh84PAL1bDDa382H7">
    <mxGraphModel dx="384" dy="289" grid="1" gridSize="10" guides="1" tooltips="1" connect="1" arrows="1" fold="1" page="1" pageScale="1" pageWidth="1169" pageHeight="827" math="1" shadow="0">
      <root>
        <mxCell id="0" />
        <mxCell id="1" parent="0" />
        <mxCell id="djQrb9xfdXbWf9af0k9K-1" value="" style="rounded=0;whiteSpace=wrap;html=1;" parent="1" vertex="1">
          <mxGeometry x="490" y="230" width="130" height="390" as="geometry" />
        </mxCell>
        <mxCell id="djQrb9xfdXbWf9af0k9K-3" value="" style="endArrow=none;html=1;rounded=0;" parent="1" edge="1">
          <mxGeometry width="50" height="50" relative="1" as="geometry">
            <mxPoint x="310" y="260" as="sourcePoint" />
            <mxPoint x="490" y="260" as="targetPoint" />
          </mxGeometry>
        </mxCell>
        <mxCell id="djQrb9xfdXbWf9af0k9K-4" value="" style="endArrow=none;html=1;rounded=0;" parent="1" edge="1">
          <mxGeometry width="50" height="50" relative="1" as="geometry">
            <mxPoint x="450" y="300" as="sourcePoint" />
            <mxPoint x="490" y="300" as="targetPoint" />
          </mxGeometry>
        </mxCell>
        <mxCell id="djQrb9xfdXbWf9af0k9K-5" value="" style="endArrow=none;html=1;rounded=0;" parent="1" edge="1">
          <mxGeometry width="50" height="50" relative="1" as="geometry">
            <mxPoint x="450" y="320" as="sourcePoint" />
            <mxPoint x="490" y="320" as="targetPoint" />
          </mxGeometry>
        </mxCell>
        <mxCell id="djQrb9xfdXbWf9af0k9K-6" value="" style="endArrow=none;html=1;rounded=0;" parent="1" edge="1">
          <mxGeometry width="50" height="50" relative="1" as="geometry">
            <mxPoint x="450" y="340" as="sourcePoint" />
            <mxPoint x="490" y="340" as="targetPoint" />
          </mxGeometry>
        </mxCell>
        <mxCell id="djQrb9xfdXbWf9af0k9K-7" value="" style="endArrow=none;html=1;rounded=0;" parent="1" edge="1">
          <mxGeometry width="50" height="50" relative="1" as="geometry">
            <mxPoint x="450" y="400" as="sourcePoint" />
            <mxPoint x="490" y="400" as="targetPoint" />
          </mxGeometry>
        </mxCell>
        <mxCell id="djQrb9xfdXbWf9af0k9K-8" value="" style="endArrow=none;html=1;rounded=0;" parent="1" edge="1">
          <mxGeometry width="50" height="50" relative="1" as="geometry">
            <mxPoint x="450" y="419" as="sourcePoint" />
            <mxPoint x="490" y="419" as="targetPoint" />
          </mxGeometry>
        </mxCell>
        <mxCell id="djQrb9xfdXbWf9af0k9K-9" value="" style="endArrow=none;html=1;rounded=0;" parent="1" edge="1">
          <mxGeometry width="50" height="50" relative="1" as="geometry">
            <mxPoint x="450" y="439" as="sourcePoint" />
            <mxPoint x="490" y="439" as="targetPoint" />
          </mxGeometry>
        </mxCell>
        <mxCell id="djQrb9xfdXbWf9af0k9K-10" value="" style="endArrow=none;html=1;rounded=0;" parent="1" edge="1">
          <mxGeometry width="50" height="50" relative="1" as="geometry">
            <mxPoint x="450" y="459" as="sourcePoint" />
            <mxPoint x="490" y="459" as="targetPoint" />
          </mxGeometry>
        </mxCell>
        <mxCell id="djQrb9xfdXbWf9af0k9K-11" value="" style="endArrow=none;html=1;rounded=0;" parent="1" edge="1">
          <mxGeometry width="50" height="50" relative="1" as="geometry">
            <mxPoint x="450" y="481" as="sourcePoint" />
            <mxPoint x="490" y="481" as="targetPoint" />
          </mxGeometry>
        </mxCell>
        <mxCell id="djQrb9xfdXbWf9af0k9K-12" value="" style="endArrow=none;html=1;rounded=0;" parent="1" edge="1">
          <mxGeometry width="50" height="50" relative="1" as="geometry">
            <mxPoint x="450" y="499" as="sourcePoint" />
            <mxPoint x="490" y="499" as="targetPoint" />
          </mxGeometry>
        </mxCell>
        <mxCell id="djQrb9xfdXbWf9af0k9K-13" value="" style="endArrow=none;html=1;rounded=0;" parent="1" edge="1">
          <mxGeometry width="50" height="50" relative="1" as="geometry">
            <mxPoint x="450" y="519" as="sourcePoint" />
            <mxPoint x="490" y="519" as="targetPoint" />
          </mxGeometry>
        </mxCell>
        <mxCell id="djQrb9xfdXbWf9af0k9K-14" value="" style="endArrow=none;html=1;rounded=0;" parent="1" edge="1">
          <mxGeometry width="50" height="50" relative="1" as="geometry">
            <mxPoint x="450" y="539" as="sourcePoint" />
            <mxPoint x="490" y="539" as="targetPoint" />
          </mxGeometry>
        </mxCell>
        <mxCell id="djQrb9xfdXbWf9af0k9K-18" value="" style="endArrow=none;html=1;rounded=0;" parent="1" edge="1">
          <mxGeometry width="50" height="50" relative="1" as="geometry">
            <mxPoint x="470" y="250" as="sourcePoint" />
            <mxPoint x="490" y="260" as="targetPoint" />
          </mxGeometry>
        </mxCell>
        <mxCell id="djQrb9xfdXbWf9af0k9K-19" value="" style="endArrow=none;html=1;rounded=0;" parent="1" edge="1">
          <mxGeometry width="50" height="50" relative="1" as="geometry">
            <mxPoint x="470" y="260" as="sourcePoint" />
            <mxPoint x="470" y="250" as="targetPoint" />
          </mxGeometry>
        </mxCell>
        <mxCell id="djQrb9xfdXbWf9af0k9K-20" value="&lt;svg style=&quot;vertical-align: -0.05ex;&quot; xmlns:xlink=&quot;http://www.w3.org/1999/xlink&quot; viewBox=&quot;0 -1022 1349 1044&quot; role=&quot;img&quot; height=&quot;2.362ex&quot; width=&quot;3.052ex&quot; xmlns=&quot;http://www.w3.org/2000/svg&quot;&gt;&lt;defs&gt;&lt;path d=&quot;M308 24Q367 24 416 76T466 197Q466 260 414 284Q308 311 278 321T236 341Q176 383 176 462Q176 523 208 573T273 648Q302 673 343 688T407 704H418H425Q521 704 564 640Q565 640 577 653T603 682T623 704Q624 704 627 704T632 705Q645 705 645 698T617 577T585 459T569 456Q549 456 549 465Q549 471 550 475Q550 478 551 494T553 520Q553 554 544 579T526 616T501 641Q465 662 419 662Q362 662 313 616T263 510Q263 480 278 458T319 427Q323 425 389 408T456 390Q490 379 522 342T554 242Q554 216 546 186Q541 164 528 137T492 78T426 18T332 -20Q320 -22 298 -22Q199 -22 144 33L134 44L106 13Q83 -14 78 -18T65 -22Q52 -22 52 -14Q52 -11 110 221Q112 227 130 227H143Q149 221 149 216Q149 214 148 207T144 186T142 153Q144 114 160 87T203 47T255 29T308 24Z&quot; id=&quot;MJX-1-TEX-I-1D446&quot;&gt;&lt;/path&gt;&lt;path d=&quot;M40 437Q21 437 21 445Q21 450 37 501T71 602L88 651Q93 669 101 677H569H659Q691 677 697 676T704 667Q704 661 687 553T668 444Q668 437 649 437Q640 437 637 437T631 442L629 445Q629 451 635 490T641 551Q641 586 628 604T573 629Q568 630 515 631Q469 631 457 630T439 622Q438 621 368 343T298 60Q298 48 386 46Q418 46 427 45T436 36Q436 31 433 22Q429 4 424 1L422 0Q419 0 415 0Q410 0 363 1T228 2Q99 2 64 0H49Q43 6 43 9T45 27Q49 40 55 46H83H94Q174 46 189 55Q190 56 191 56Q196 59 201 76T241 233Q258 301 269 344Q339 619 339 625Q339 630 310 630H279Q212 630 191 624Q146 614 121 583T67 467Q60 445 57 441T43 437H40Z&quot; id=&quot;MJX-1-TEX-I-1D447&quot;&gt;&lt;/path&gt;&lt;path d=&quot;M0 248V285H499V248H0Z&quot; id=&quot;MJX-1-TEX-S4-2013&quot;&gt;&lt;/path&gt;&lt;/defs&gt;&lt;g transform=&quot;scale(1,-1)&quot; stroke-width=&quot;0&quot; fill=&quot;currentColor&quot; stroke=&quot;currentColor&quot;&gt;&lt;g data-mml-node=&quot;math&quot;&gt;&lt;g data-mml-node=&quot;mover&quot;&gt;&lt;g data-mml-node=&quot;mrow&quot;&gt;&lt;g data-mml-node=&quot;mi&quot;&gt;&lt;use xlink:href=&quot;#MJX-1-TEX-I-1D446&quot; data-c=&quot;1D446&quot;&gt;&lt;/use&gt;&lt;/g&gt;&lt;g transform=&quot;translate(645,0)&quot; data-mml-node=&quot;mi&quot;&gt;&lt;use xlink:href=&quot;#MJX-1-TEX-I-1D447&quot; data-c=&quot;1D447&quot;&gt;&lt;/use&gt;&lt;/g&gt;&lt;/g&gt;&lt;g transform=&quot;translate(0,637)&quot; data-mml-node=&quot;mo&quot;&gt;&lt;svg viewBox=&quot;337.2 148 1349 237&quot; y=&quot;148&quot; x=&quot;0&quot; height=&quot;237&quot; width=&quot;1349&quot;&gt;&lt;use transform=&quot;scale(4.047,1)&quot; xlink:href=&quot;#MJX-1-TEX-S4-2013&quot; data-c=&quot;2013&quot;&gt;&lt;/use&gt;&lt;/svg&gt;&lt;/g&gt;&lt;/g&gt;&lt;/g&gt;&lt;/g&gt;&lt;/svg&gt;" style="text;html=1;align=center;verticalAlign=middle;resizable=0;points=[];autosize=1;strokeColor=none;fillColor=none;" parent="1" vertex="1">
          <mxGeometry x="295" y="235" width="40" height="30" as="geometry" />
        </mxCell>
        <mxCell id="djQrb9xfdXbWf9af0k9K-21" value="$$A_0$$" style="text;html=1;align=center;verticalAlign=middle;resizable=0;points=[];autosize=1;strokeColor=none;fillColor=none;" parent="1" vertex="1">
          <mxGeometry x="420" y="276" width="70" height="30" as="geometry" />
        </mxCell>
        <mxCell id="djQrb9xfdXbWf9af0k9K-22" value="$$A_1$$" style="text;html=1;align=center;verticalAlign=middle;resizable=0;points=[];autosize=1;strokeColor=none;fillColor=none;" parent="1" vertex="1">
          <mxGeometry x="420" y="296" width="70" height="30" as="geometry" />
        </mxCell>
        <mxCell id="djQrb9xfdXbWf9af0k9K-23" value="$$A_2$$" style="text;html=1;align=center;verticalAlign=middle;resizable=0;points=[];autosize=1;strokeColor=none;fillColor=none;" parent="1" vertex="1">
          <mxGeometry x="421" y="317" width="70" height="30" as="geometry" />
        </mxCell>
        <mxCell id="djQrb9xfdXbWf9af0k9K-25" value="$$D_0$$" style="text;html=1;align=center;verticalAlign=middle;resizable=0;points=[];autosize=1;strokeColor=none;fillColor=none;" parent="1" vertex="1">
          <mxGeometry x="420" y="374" width="70" height="30" as="geometry" />
        </mxCell>
        <mxCell id="djQrb9xfdXbWf9af0k9K-26" value="$$D_1$$" style="text;html=1;align=center;verticalAlign=middle;resizable=0;points=[];autosize=1;strokeColor=none;fillColor=none;movable=0;rotatable=0;deletable=0;editable=0;locked=1;connectable=0;" parent="1" vertex="1">
          <mxGeometry x="420" y="394" width="70" height="30" as="geometry" />
        </mxCell>
        <mxCell id="djQrb9xfdXbWf9af0k9K-27" value="$$D_2$$" style="text;html=1;align=center;verticalAlign=middle;resizable=0;points=[];autosize=1;strokeColor=none;fillColor=none;movable=0;rotatable=0;deletable=0;editable=0;locked=1;connectable=0;" parent="1" vertex="1">
          <mxGeometry x="421" y="415" width="70" height="30" as="geometry" />
        </mxCell>
        <mxCell id="djQrb9xfdXbWf9af0k9K-31" value="$$D_3$$" style="text;html=1;align=center;verticalAlign=middle;resizable=0;points=[];autosize=1;strokeColor=none;fillColor=none;movable=0;rotatable=0;deletable=0;editable=0;locked=1;connectable=0;" parent="1" vertex="1">
          <mxGeometry x="421" y="436" width="70" height="30" as="geometry" />
        </mxCell>
        <mxCell id="djQrb9xfdXbWf9af0k9K-32" value="$$D_4$$" style="text;html=1;align=center;verticalAlign=middle;resizable=0;points=[];autosize=1;strokeColor=none;fillColor=none;movable=0;rotatable=0;deletable=0;editable=0;locked=1;connectable=0;" parent="1" vertex="1">
          <mxGeometry x="421" y="456" width="70" height="30" as="geometry" />
        </mxCell>
        <mxCell id="djQrb9xfdXbWf9af0k9K-33" value="$$D_5$$" style="text;html=1;align=center;verticalAlign=middle;resizable=0;points=[];autosize=1;strokeColor=none;fillColor=none;" parent="1" vertex="1">
          <mxGeometry x="422" y="476" width="70" height="30" as="geometry" />
        </mxCell>
        <mxCell id="djQrb9xfdXbWf9af0k9K-34" value="$$D_6$$" style="text;html=1;align=center;verticalAlign=middle;resizable=0;points=[];autosize=1;strokeColor=none;fillColor=none;movable=0;rotatable=0;deletable=0;editable=0;locked=1;connectable=0;" parent="1" vertex="1">
          <mxGeometry x="422" y="495" width="70" height="30" as="geometry" />
        </mxCell>
        <mxCell id="djQrb9xfdXbWf9af0k9K-35" value="$$D_7$$" style="text;html=1;align=center;verticalAlign=middle;resizable=0;points=[];autosize=1;strokeColor=none;fillColor=none;movable=0;rotatable=0;deletable=0;editable=0;locked=1;connectable=0;" parent="1" vertex="1">
          <mxGeometry x="422" y="515" width="70" height="30" as="geometry" />
        </mxCell>
        <mxCell id="djQrb9xfdXbWf9af0k9K-37" value="MUX" style="text;html=1;align=center;verticalAlign=middle;whiteSpace=wrap;rounded=0;" parent="1" vertex="1">
          <mxGeometry x="525" y="230" width="60" height="30" as="geometry" />
        </mxCell>
        <mxCell id="djQrb9xfdXbWf9af0k9K-38" value="&lt;font style=&quot;font-size: 8.5px;&quot;&gt;0&lt;/font&gt;&lt;div style=&quot;font-size: 8.5px;&quot;&gt;&lt;font style=&quot;font-size: 8.5px;&quot;&gt;&lt;br style=&quot;&quot;&gt;&lt;/font&gt;&lt;/div&gt;&lt;div style=&quot;font-size: 8.5px;&quot;&gt;&lt;font style=&quot;font-size: 8.5px;&quot;&gt;1&lt;/font&gt;&lt;/div&gt;&lt;div style=&quot;font-size: 8.5px;&quot;&gt;&lt;font style=&quot;font-size: 8.5px;&quot;&gt;&lt;br style=&quot;&quot;&gt;&lt;/font&gt;&lt;/div&gt;&lt;div style=&quot;font-size: 8.5px;&quot;&gt;&lt;font style=&quot;font-size: 8.5px;&quot;&gt;2&lt;/font&gt;&lt;/div&gt;&lt;div style=&quot;font-size: 8.5px;&quot;&gt;&lt;font style=&quot;font-size: 8.5px;&quot;&gt;&lt;br style=&quot;&quot;&gt;&lt;/font&gt;&lt;/div&gt;&lt;div style=&quot;font-size: 8.5px;&quot;&gt;&lt;font style=&quot;font-size: 8.5px;&quot;&gt;3&lt;/font&gt;&lt;/div&gt;&lt;div style=&quot;font-size: 8.5px;&quot;&gt;&lt;font style=&quot;font-size: 8.5px;&quot;&gt;&lt;br style=&quot;&quot;&gt;&lt;/font&gt;&lt;/div&gt;&lt;div style=&quot;font-size: 8.5px;&quot;&gt;&lt;font style=&quot;font-size: 8.5px;&quot;&gt;4&lt;/font&gt;&lt;/div&gt;&lt;div style=&quot;font-size: 8.5px;&quot;&gt;&lt;font style=&quot;font-size: 8.5px;&quot;&gt;&lt;br style=&quot;&quot;&gt;&lt;/font&gt;&lt;/div&gt;&lt;div style=&quot;font-size: 8.5px;&quot;&gt;&lt;font style=&quot;font-size: 8.5px;&quot;&gt;5&lt;/font&gt;&lt;/div&gt;&lt;div style=&quot;font-size: 8.5px;&quot;&gt;&lt;font style=&quot;font-size: 8.5px;&quot;&gt;&lt;br style=&quot;&quot;&gt;&lt;/font&gt;&lt;/div&gt;&lt;div style=&quot;font-size: 8.5px;&quot;&gt;&lt;font style=&quot;font-size: 8.5px;&quot;&gt;6&lt;/font&gt;&lt;/div&gt;&lt;div style=&quot;font-size: 8.5px;&quot;&gt;&lt;font style=&quot;font-size: 8.5px;&quot;&gt;&lt;br style=&quot;&quot;&gt;&lt;/font&gt;&lt;/div&gt;&lt;div style=&quot;font-size: 8.5px;&quot;&gt;&lt;font style=&quot;font-size: 8.5px;&quot;&gt;7&lt;/font&gt;&lt;/div&gt;&lt;div style=&quot;font-size: 8.5px;&quot;&gt;&lt;br&gt;&lt;/div&gt;" style="text;html=1;align=center;verticalAlign=middle;whiteSpace=wrap;rounded=0;spacing=-2;fontSize=8;" parent="1" vertex="1">
          <mxGeometry x="469" y="459" width="60" height="30" as="geometry" />
        </mxCell>
        <mxCell id="djQrb9xfdXbWf9af0k9K-39" value="&lt;font style=&quot;font-size: 8px;&quot;&gt;0&lt;/font&gt;&lt;div style=&quot;font-size: 8px;&quot;&gt;&lt;font style=&quot;font-size: 8px;&quot;&gt;&lt;br&gt;&lt;/font&gt;&lt;/div&gt;&lt;div style=&quot;font-size: 8px;&quot;&gt;&lt;font style=&quot;font-size: 8px;&quot;&gt;1&lt;/font&gt;&lt;/div&gt;&lt;div style=&quot;font-size: 8px;&quot;&gt;&lt;font style=&quot;font-size: 8px;&quot;&gt;&lt;br&gt;&lt;/font&gt;&lt;/div&gt;&lt;div style=&quot;font-size: 8px;&quot;&gt;&lt;font style=&quot;font-size: 8px;&quot;&gt;2&lt;/font&gt;&lt;/div&gt;" style="text;html=1;align=center;verticalAlign=middle;resizable=0;points=[];autosize=1;strokeColor=none;fillColor=none;" parent="1" vertex="1">
          <mxGeometry x="479" y="283" width="30" height="70" as="geometry" />
        </mxCell>
        <mxCell id="djQrb9xfdXbWf9af0k9K-40" value="EN" style="text;html=1;align=center;verticalAlign=middle;resizable=0;points=[];autosize=1;strokeColor=none;fillColor=none;" parent="1" vertex="1">
          <mxGeometry x="481" y="244" width="40" height="30" as="geometry" />
        </mxCell>
        <mxCell id="djQrb9xfdXbWf9af0k9K-41" value="" style="endArrow=none;html=1;rounded=0;" parent="1" edge="1">
          <mxGeometry width="50" height="50" relative="1" as="geometry">
            <mxPoint x="620" y="379" as="sourcePoint" />
            <mxPoint x="720" y="379" as="targetPoint" />
          </mxGeometry>
        </mxCell>
        <mxCell id="djQrb9xfdXbWf9af0k9K-42" value="" style="endArrow=none;html=1;rounded=0;" parent="1" edge="1">
          <mxGeometry width="50" height="50" relative="1" as="geometry">
            <mxPoint x="620" y="479.78" as="sourcePoint" />
            <mxPoint x="720" y="480" as="targetPoint" />
          </mxGeometry>
        </mxCell>
        <mxCell id="djQrb9xfdXbWf9af0k9K-43" value="$$Y$$" style="text;html=1;align=center;verticalAlign=middle;resizable=0;points=[];autosize=1;strokeColor=none;fillColor=none;" parent="1" vertex="1">
          <mxGeometry x="618" y="356" width="60" height="30" as="geometry" />
        </mxCell>
        <mxCell id="djQrb9xfdXbWf9af0k9K-44" value="$$\overline{Y}$$" style="text;html=1;align=center;verticalAlign=middle;resizable=0;points=[];autosize=1;strokeColor=none;fillColor=none;" parent="1" vertex="1">
          <mxGeometry x="594" y="455" width="110" height="30" as="geometry" />
        </mxCell>
        <mxCell id="djQrb9xfdXbWf9af0k9K-45" value="" style="endArrow=none;html=1;rounded=0;" parent="1" edge="1">
          <mxGeometry width="50" height="50" relative="1" as="geometry">
            <mxPoint x="620" y="470" as="sourcePoint" />
            <mxPoint x="640" y="480" as="targetPoint" />
          </mxGeometry>
        </mxCell>
        <mxCell id="djQrb9xfdXbWf9af0k9K-46" value="" style="endArrow=none;html=1;rounded=0;" parent="1" edge="1">
          <mxGeometry width="50" height="50" relative="1" as="geometry">
            <mxPoint x="310" y="300" as="sourcePoint" />
            <mxPoint x="450" y="300" as="targetPoint" />
          </mxGeometry>
        </mxCell>
        <mxCell id="djQrb9xfdXbWf9af0k9K-47" value="" style="endArrow=none;html=1;rounded=0;" parent="1" edge="1">
          <mxGeometry width="50" height="50" relative="1" as="geometry">
            <mxPoint x="310" y="320" as="sourcePoint" />
            <mxPoint x="450" y="320" as="targetPoint" />
          </mxGeometry>
        </mxCell>
        <mxCell id="djQrb9xfdXbWf9af0k9K-48" value="" style="endArrow=none;html=1;rounded=0;" parent="1" edge="1">
          <mxGeometry width="50" height="50" relative="1" as="geometry">
            <mxPoint x="310" y="340" as="sourcePoint" />
            <mxPoint x="450" y="340" as="targetPoint" />
          </mxGeometry>
        </mxCell>
        <mxCell id="djQrb9xfdXbWf9af0k9K-52" value="" style="group" parent="1" vertex="1" connectable="0">
          <mxGeometry x="360" y="391" width="30" height="20" as="geometry" />
        </mxCell>
        <mxCell id="djQrb9xfdXbWf9af0k9K-49" value="" style="triangle;whiteSpace=wrap;html=1;" parent="djQrb9xfdXbWf9af0k9K-52" vertex="1">
          <mxGeometry width="25" height="20" as="geometry" />
        </mxCell>
        <mxCell id="djQrb9xfdXbWf9af0k9K-51" value="" style="ellipse;whiteSpace=wrap;html=1;aspect=fixed;" parent="djQrb9xfdXbWf9af0k9K-52" vertex="1">
          <mxGeometry x="25" y="6.666666666666666" width="5" height="5" as="geometry" />
        </mxCell>
        <mxCell id="djQrb9xfdXbWf9af0k9K-53" value="" style="endArrow=none;html=1;rounded=0;" parent="1" edge="1">
          <mxGeometry width="50" height="50" relative="1" as="geometry">
            <mxPoint x="390" y="400" as="sourcePoint" />
            <mxPoint x="450" y="400" as="targetPoint" />
          </mxGeometry>
        </mxCell>
        <mxCell id="djQrb9xfdXbWf9af0k9K-54" value="" style="endArrow=none;html=1;rounded=0;" parent="1" edge="1">
          <mxGeometry width="50" height="50" relative="1" as="geometry">
            <mxPoint x="390" y="419" as="sourcePoint" />
            <mxPoint x="450" y="419" as="targetPoint" />
          </mxGeometry>
        </mxCell>
        <mxCell id="djQrb9xfdXbWf9af0k9K-55" value="" style="endArrow=none;html=1;rounded=0;" parent="1" edge="1">
          <mxGeometry width="50" height="50" relative="1" as="geometry">
            <mxPoint x="420" y="420" as="sourcePoint" />
            <mxPoint x="450" y="439" as="targetPoint" />
            <Array as="points">
              <mxPoint x="420" y="439" />
            </Array>
          </mxGeometry>
        </mxCell>
        <mxCell id="djQrb9xfdXbWf9af0k9K-56" value="" style="ellipse;whiteSpace=wrap;html=1;aspect=fixed;fillColor=#000000;" parent="1" vertex="1">
          <mxGeometry x="418" y="417" width="4" height="4" as="geometry" />
        </mxCell>
        <mxCell id="djQrb9xfdXbWf9af0k9K-60" value="" style="endArrow=none;html=1;rounded=0;" parent="1" edge="1">
          <mxGeometry width="50" height="50" relative="1" as="geometry">
            <mxPoint x="410" y="400" as="sourcePoint" />
            <mxPoint x="450" y="459" as="targetPoint" />
            <Array as="points">
              <mxPoint x="410" y="459" />
            </Array>
          </mxGeometry>
        </mxCell>
        <mxCell id="djQrb9xfdXbWf9af0k9K-61" value="" style="ellipse;whiteSpace=wrap;html=1;aspect=fixed;fillColor=#000000;" parent="1" vertex="1">
          <mxGeometry x="408" y="398" width="4" height="4" as="geometry" />
        </mxCell>
        <mxCell id="djQrb9xfdXbWf9af0k9K-62" value="" style="endArrow=none;html=1;rounded=0;exitX=0.469;exitY=0.361;exitDx=0;exitDy=0;exitPerimeter=0;" parent="1" edge="1">
          <mxGeometry width="50" height="50" relative="1" as="geometry">
            <mxPoint x="419.8760000000001" y="438.44399999999996" as="sourcePoint" />
            <mxPoint x="460" y="481" as="targetPoint" />
            <Array as="points">
              <mxPoint x="420" y="481" />
            </Array>
          </mxGeometry>
        </mxCell>
        <mxCell id="djQrb9xfdXbWf9af0k9K-63" value="" style="ellipse;whiteSpace=wrap;html=1;aspect=fixed;fillColor=#000000;" parent="1" vertex="1">
          <mxGeometry x="408" y="457" width="4" height="4" as="geometry" />
        </mxCell>
        <mxCell id="djQrb9xfdXbWf9af0k9K-65" value="" style="endArrow=none;html=1;rounded=0;" parent="1" edge="1">
          <mxGeometry width="50" height="50" relative="1" as="geometry">
            <mxPoint x="410" y="440" as="sourcePoint" />
            <mxPoint x="450" y="499" as="targetPoint" />
            <Array as="points">
              <mxPoint x="410" y="499" />
            </Array>
          </mxGeometry>
        </mxCell>
        <mxCell id="djQrb9xfdXbWf9af0k9K-67" value="" style="endArrow=none;html=1;rounded=0;" parent="1" edge="1">
          <mxGeometry width="50" height="50" relative="1" as="geometry">
            <mxPoint x="410" y="440" as="sourcePoint" />
            <mxPoint x="450" y="519" as="targetPoint" />
            <Array as="points">
              <mxPoint x="410" y="519" />
            </Array>
          </mxGeometry>
        </mxCell>
        <mxCell id="djQrb9xfdXbWf9af0k9K-68" value="" style="ellipse;whiteSpace=wrap;html=1;aspect=fixed;fillColor=#000000;" parent="1" vertex="1">
          <mxGeometry x="418" y="437" width="4" height="4" as="geometry" />
        </mxCell>
        <mxCell id="djQrb9xfdXbWf9af0k9K-70" value="" style="ellipse;whiteSpace=wrap;html=1;aspect=fixed;fillColor=#000000;" parent="1" vertex="1">
          <mxGeometry x="418" y="479" width="4" height="4" as="geometry" />
        </mxCell>
        <mxCell id="djQrb9xfdXbWf9af0k9K-71" value="" style="endArrow=none;html=1;rounded=0;" parent="1" edge="1">
          <mxGeometry width="50" height="50" relative="1" as="geometry">
            <mxPoint x="420" y="440" as="sourcePoint" />
            <mxPoint x="460" y="539" as="targetPoint" />
            <Array as="points">
              <mxPoint x="420" y="539" />
            </Array>
          </mxGeometry>
        </mxCell>
        <mxCell id="djQrb9xfdXbWf9af0k9K-73" value="" style="endArrow=none;html=1;rounded=0;" parent="1" edge="1">
          <mxGeometry width="50" height="50" relative="1" as="geometry">
            <mxPoint x="331.9999827112289" y="400.16168406357076" as="sourcePoint" />
            <mxPoint x="360" y="400" as="targetPoint" />
          </mxGeometry>
        </mxCell>
        <mxCell id="djQrb9xfdXbWf9af0k9K-74" value="" style="endArrow=none;html=1;rounded=0;" parent="1" edge="1">
          <mxGeometry width="50" height="50" relative="1" as="geometry">
            <mxPoint x="350" y="400" as="sourcePoint" />
            <mxPoint x="390" y="419" as="targetPoint" />
            <Array as="points">
              <mxPoint x="350" y="419" />
            </Array>
          </mxGeometry>
        </mxCell>
        <mxCell id="djQrb9xfdXbWf9af0k9K-76" value="" style="endArrow=none;html=1;rounded=0;" parent="1" edge="1">
          <mxGeometry width="50" height="50" relative="1" as="geometry">
            <mxPoint x="310" y="400.14" as="sourcePoint" />
            <mxPoint x="340" y="400.14" as="targetPoint" />
          </mxGeometry>
        </mxCell>
        <mxCell id="djQrb9xfdXbWf9af0k9K-77" value="$$I_1$$" style="text;html=1;align=center;verticalAlign=middle;resizable=0;points=[];autosize=1;strokeColor=none;fillColor=none;" parent="1" vertex="1">
          <mxGeometry x="280" y="276" width="70" height="30" as="geometry" />
        </mxCell>
        <mxCell id="djQrb9xfdXbWf9af0k9K-78" value="$$I_2$$" style="text;html=1;align=center;verticalAlign=middle;resizable=0;points=[];autosize=1;strokeColor=none;fillColor=none;" parent="1" vertex="1">
          <mxGeometry x="280" y="296" width="70" height="30" as="geometry" />
        </mxCell>
        <mxCell id="djQrb9xfdXbWf9af0k9K-79" value="$$I_3$$" style="text;html=1;align=center;verticalAlign=middle;resizable=0;points=[];autosize=1;strokeColor=none;fillColor=none;" parent="1" vertex="1">
          <mxGeometry x="280" y="317" width="70" height="30" as="geometry" />
        </mxCell>
        <mxCell id="djQrb9xfdXbWf9af0k9K-80" value="$$I_4$$" style="text;html=1;align=center;verticalAlign=middle;resizable=0;points=[];autosize=1;strokeColor=none;fillColor=none;" parent="1" vertex="1">
          <mxGeometry x="281" y="377" width="70" height="30" as="geometry" />
        </mxCell>
        <mxCell id="djQrb9xfdXbWf9af0k9K-81" value="" style="swimlane;startSize=0;dashed=1;" parent="1" vertex="1">
          <mxGeometry x="340" y="220" width="320" height="420" as="geometry" />
        </mxCell>
        <mxCell id="djQrb9xfdXbWf9af0k9K-82" value="&lt;svg style=&quot;vertical-align: -0.05ex;&quot; xmlns:xlink=&quot;http://www.w3.org/1999/xlink&quot; viewBox=&quot;0 -1022 1349 1044&quot; role=&quot;img&quot; height=&quot;2.362ex&quot; width=&quot;3.052ex&quot; xmlns=&quot;http://www.w3.org/2000/svg&quot;&gt;&lt;defs&gt;&lt;path d=&quot;M308 24Q367 24 416 76T466 197Q466 260 414 284Q308 311 278 321T236 341Q176 383 176 462Q176 523 208 573T273 648Q302 673 343 688T407 704H418H425Q521 704 564 640Q565 640 577 653T603 682T623 704Q624 704 627 704T632 705Q645 705 645 698T617 577T585 459T569 456Q549 456 549 465Q549 471 550 475Q550 478 551 494T553 520Q553 554 544 579T526 616T501 641Q465 662 419 662Q362 662 313 616T263 510Q263 480 278 458T319 427Q323 425 389 408T456 390Q490 379 522 342T554 242Q554 216 546 186Q541 164 528 137T492 78T426 18T332 -20Q320 -22 298 -22Q199 -22 144 33L134 44L106 13Q83 -14 78 -18T65 -22Q52 -22 52 -14Q52 -11 110 221Q112 227 130 227H143Q149 221 149 216Q149 214 148 207T144 186T142 153Q144 114 160 87T203 47T255 29T308 24Z&quot; id=&quot;MJX-1-TEX-I-1D446&quot;&gt;&lt;/path&gt;&lt;path d=&quot;M40 437Q21 437 21 445Q21 450 37 501T71 602L88 651Q93 669 101 677H569H659Q691 677 697 676T704 667Q704 661 687 553T668 444Q668 437 649 437Q640 437 637 437T631 442L629 445Q629 451 635 490T641 551Q641 586 628 604T573 629Q568 630 515 631Q469 631 457 630T439 622Q438 621 368 343T298 60Q298 48 386 46Q418 46 427 45T436 36Q436 31 433 22Q429 4 424 1L422 0Q419 0 415 0Q410 0 363 1T228 2Q99 2 64 0H49Q43 6 43 9T45 27Q49 40 55 46H83H94Q174 46 189 55Q190 56 191 56Q196 59 201 76T241 233Q258 301 269 344Q339 619 339 625Q339 630 310 630H279Q212 630 191 624Q146 614 121 583T67 467Q60 445 57 441T43 437H40Z&quot; id=&quot;MJX-1-TEX-I-1D447&quot;&gt;&lt;/path&gt;&lt;path d=&quot;M0 248V285H499V248H0Z&quot; id=&quot;MJX-1-TEX-S4-2013&quot;&gt;&lt;/path&gt;&lt;/defs&gt;&lt;g transform=&quot;scale(1,-1)&quot; stroke-width=&quot;0&quot; fill=&quot;currentColor&quot; stroke=&quot;currentColor&quot;&gt;&lt;g data-mml-node=&quot;math&quot;&gt;&lt;g data-mml-node=&quot;mover&quot;&gt;&lt;g data-mml-node=&quot;mrow&quot;&gt;&lt;g data-mml-node=&quot;mi&quot;&gt;&lt;use xlink:href=&quot;#MJX-1-TEX-I-1D446&quot; data-c=&quot;1D446&quot;&gt;&lt;/use&gt;&lt;/g&gt;&lt;g transform=&quot;translate(645,0)&quot; data-mml-node=&quot;mi&quot;&gt;&lt;use xlink:href=&quot;#MJX-1-TEX-I-1D447&quot; data-c=&quot;1D447&quot;&gt;&lt;/use&gt;&lt;/g&gt;&lt;/g&gt;&lt;g transform=&quot;translate(0,637)&quot; data-mml-node=&quot;mo&quot;&gt;&lt;svg viewBox=&quot;337.2 148 1349 237&quot; y=&quot;148&quot; x=&quot;0&quot; height=&quot;237&quot; width=&quot;1349&quot;&gt;&lt;use transform=&quot;scale(4.047,1)&quot; xlink:href=&quot;#MJX-1-TEX-S4-2013&quot; data-c=&quot;2013&quot;&gt;&lt;/use&gt;&lt;/svg&gt;&lt;/g&gt;&lt;/g&gt;&lt;/g&gt;&lt;/g&gt;&lt;/svg&gt;" style="text;html=1;align=center;verticalAlign=middle;resizable=0;points=[];autosize=1;strokeColor=none;fillColor=none;" parent="djQrb9xfdXbWf9af0k9K-81" vertex="1">
          <mxGeometry x="84" y="17" width="40" height="30" as="geometry" />
        </mxCell>
        <mxCell id="djQrb9xfdXbWf9af0k9K-83" value="$$2k+1$$" style="text;html=1;align=center;verticalAlign=middle;resizable=0;points=[];autosize=1;strokeColor=none;fillColor=none;" parent="djQrb9xfdXbWf9af0k9K-81" vertex="1">
          <mxGeometry x="6" width="80" height="30" as="geometry" />
        </mxCell>
        <mxCell id="djQrb9xfdXbWf9af0k9K-66" value="" style="ellipse;whiteSpace=wrap;html=1;aspect=fixed;fillColor=#000000;" parent="djQrb9xfdXbWf9af0k9K-81" vertex="1">
          <mxGeometry x="68" y="277" width="4" height="4" as="geometry" />
        </mxCell>
        <mxCell id="djQrb9xfdXbWf9af0k9K-84" value="$$Y$$" style="text;html=1;align=center;verticalAlign=middle;resizable=0;points=[];autosize=1;strokeColor=none;fillColor=none;" parent="1" vertex="1">
          <mxGeometry x="665" y="356" width="60" height="30" as="geometry" />
        </mxCell>
        <mxCell id="djQrb9xfdXbWf9af0k9K-85" value="$$\overline{Y}$$" style="text;html=1;align=center;verticalAlign=middle;resizable=0;points=[];autosize=1;strokeColor=none;fillColor=none;" parent="1" vertex="1">
          <mxGeometry x="640" y="455" width="110" height="30" as="geometry" />
        </mxCell>
        <mxCell id="djQrb9xfdXbWf9af0k9K-86" value="" style="ellipse;whiteSpace=wrap;html=1;aspect=fixed;fillColor=#000000;" parent="1" vertex="1">
          <mxGeometry x="348" y="398" width="4" height="4" as="geometry" />
        </mxCell>
      </root>
    </mxGraphModel>
  </diagram>
</mxfile>
